<svg width="28" height="28" viewBox="0 0 28 28" fill="none" xmlns="http://www.w3.org/2000/svg">
<g clip-path="url(#clip0_14_2)">
<path d="M28 14C28 6.26801 21.732 0 14 0C6.26801 0 0 6.26801 0 14C0 21.732 6.26801 28 14 28C21.732 28 28 21.732 28 14Z" fill="#00547D"/>
<path d="M15.5679 22.1067H15.2658V22.8898H15.1061V22.1067H14.8042V21.9734H15.5679V22.1067ZM16.6778 22.8898H16.5179V22.2314L16.2694 22.7919H16.1006L15.8876 22.2314V22.8898H15.6922V22.0002H15.8876L16.1629 22.632L16.4382 22.0002H16.6513L16.6778 22.8898ZM14.1292 5.90402L15.3458 5.21V4L14.1292 4.70288V5.90402ZM14.1292 15.9139L17.2816 14.0901V11.225L14.1292 13.049V15.9139ZM14.8131 19.8557L16.6781 18.7702V17.2843L14.8131 18.3609V19.8557Z" fill="white"/>
<path d="M19.0476 13.0665L21.2507 11.7855V10.0325L19.0474 11.314L19.0476 13.0665Z" fill="white"/>
<path d="M14.127 10.0772L16.6403 8.6179V6.26013L14.127 7.7104V10.0772ZM12.4399 4.96997L13.4433 5.54818C13.6496 5.6728 13.8196 5.84925 13.9364 6.05999C14.0533 6.27073 14.1129 6.50839 14.1093 6.74932V7.41676L13.1325 6.83834C12.9233 6.71713 12.7493 6.54336 12.6278 6.33424C12.5063 6.12512 12.4415 5.8879 12.4399 5.64606V4.96997Z" fill="white"/>
<path d="M16.9512 10.4953L18.7272 9.46309V7.90608L16.9512 8.93825V10.4953ZM16.9424 16.9283L19.047 15.7093V13.5382L16.9424 14.7484V16.9283ZM19.3666 16.8573L20.6366 16.1187V14.7929L19.3666 15.5224V16.8573ZM18.4164 7.36331L19.3666 6.81168V5.86853L18.4164 6.42016V7.36331Z" fill="white"/>
<path d="M10.6857 13.4672L9.66457 12.8976C9.34974 12.7206 9.08863 12.4618 8.90888 12.1486C8.72913 11.8354 8.63743 11.4794 8.64349 11.1183V10.1218L9.66457 10.7268C9.97447 10.9072 10.2302 11.1675 10.4052 11.4806C10.5801 11.7936 10.6678 12.1478 10.6591 12.5063L10.6859 13.4672H10.6857ZM9.28272 15.9764L7.99518 15.2379C7.68588 15.0568 7.43059 14.7963 7.25571 14.4834C7.08083 14.1706 6.99271 13.8167 7.00047 13.4583V12.3726L8.28822 13.12C8.5902 13.2959 8.84088 13.5478 9.01534 13.8507C9.18981 14.1535 9.28199 14.4967 9.28272 14.8462V15.9764ZM8.3148 10.1218L7.79076 9.81905C7.6449 9.73352 7.52392 9.61137 7.43981 9.46469C7.3557 9.31802 7.31137 9.15192 7.31123 8.98285V8.52889L7.83527 8.83139C7.98116 8.91693 8.10216 9.03912 8.18627 9.18583C8.27038 9.33254 8.31469 9.49869 8.3148 9.6678V10.1218ZM11.3519 18.9571L10.2684 18.3253C10.016 18.1813 9.80659 17.9727 9.66148 17.721C9.51638 17.4693 9.44085 17.1835 9.44263 16.893V16.4565L10.526 17.0795C10.7765 17.2256 10.9845 17.4346 11.1294 17.6858C11.2742 17.9371 11.3509 18.2218 11.3519 18.5118V18.9571ZM10.9789 8.60019L10.2595 8.18188C10.0913 8.08657 9.95155 7.94808 9.85475 7.78072C9.75795 7.61336 9.70759 7.4232 9.70887 7.22987V6.34009L10.4283 6.7584C10.5972 6.85515 10.7373 6.99519 10.834 7.16409C10.9308 7.33298 10.9808 7.52462 10.9789 7.71927V8.60019Z" fill="white"/>
<path d="M14.1128 22.8897H13.4556V18.4942L12.1946 17.7913C11.828 17.5789 11.5235 17.2741 11.3116 16.9071C11.0997 16.5402 10.9878 16.1241 10.9871 15.7004V13.654L12.9318 14.775C13.2941 14.99 13.5938 15.2963 13.801 15.6631C14.0082 16.03 14.1157 16.4448 14.1128 16.8661V22.8897ZM14.1128 13.307L12.4877 12.355C12.1432 12.1555 11.8576 11.8685 11.6596 11.5233C11.4616 11.178 11.3583 10.7865 11.3601 10.3885V8.44885L12.994 9.40086C13.3368 9.60151 13.6206 9.8889 13.817 10.2341C14.0134 10.5793 14.1154 10.9702 14.1128 11.3673V13.307Z" fill="white"/>
</g>
<defs>
<clipPath id="clip0_14_2">
<rect width="28" height="28" fill="white"/>
</clipPath>
</defs>
</svg>
