<svg width="28" height="28" viewBox="0 0 28 28" fill="none" xmlns="http://www.w3.org/2000/svg">
<g clip-path="url(#clip0_18_66)">
<path d="M28 14C28 6.26801 21.732 0 14 0C6.26801 0 0 6.26801 0 14C0 21.732 6.26801 28 14 28C21.732 28 28 21.732 28 14Z" fill="#006851"/>
<path d="M14.4984 14.5693C14.2162 16.7206 14.1981 18.8707 14.23 21.0061C13.1024 19.079 12.526 16.9314 12.6689 14.66L12.3273 14.6759C12.2985 14.6789 12.2697 14.6707 12.2468 14.6528C12.2238 14.6349 12.2083 14.6088 12.2036 14.5797L11.5432 14.6128C11.5285 14.6146 11.5136 14.6128 11.4998 14.6076C11.4859 14.6023 11.4735 14.5937 11.4636 14.5826C11.4536 14.5714 11.4465 14.558 11.4426 14.5434C11.4388 14.5288 11.4385 14.5135 11.4417 14.4988L11.9905 12.8395C11.9978 12.8088 12.0153 12.7817 12.0401 12.7627C12.0648 12.7437 12.0952 12.734 12.1262 12.7354L12.4726 12.7727C12.4858 12.7423 12.5076 12.7165 12.5352 12.6986C12.5627 12.6807 12.5948 12.6716 12.6275 12.6723L12.9643 12.6882C13.5107 10.4168 14.7355 8.26914 16.4467 6.3427C15.77 8.47808 15.1378 10.6276 14.7697 12.7764L15.2501 12.978L19.8419 12.7495C19.8748 12.7492 19.9067 12.7377 19.9325 12.7168C19.9583 12.6959 19.9765 12.6669 19.9842 12.6343C20.273 10.9364 20.6393 9.04118 20.9929 7.358C21.0023 7.31846 21.0024 7.27719 20.993 7.23764C20.9836 7.19809 20.965 7.16141 20.9389 7.13068C20.5046 6.59065 20.0745 6.04593 19.6486 5.49651C19.6211 5.46225 19.5865 5.43469 19.5472 5.41582C19.5079 5.39695 19.4651 5.38726 19.4217 5.38744C16.7883 5.25714 14.1541 5.12805 11.5191 5.0002C11.425 4.99715 11.3331 5.02966 11.261 5.09149C10.5953 5.62008 9.93208 6.15602 9.27124 6.69931C9.19486 6.75802 9.14178 6.84286 9.12174 6.93828C8.18145 11.6242 7.47407 16.3556 7.00231 21.1145C6.99689 21.1581 7.00103 21.2024 7.01443 21.2441C7.02782 21.2859 7.05014 21.3241 7.07976 21.3559C7.57249 21.8951 8.06863 22.4288 8.56816 22.957C8.6234 23.0152 8.79692 22.9974 8.79692 22.9974H16.4196C16.4196 22.9974 16.61 22.9546 16.6754 22.8914C17.2704 22.3167 18.1896 21.3694 18.7906 20.8081C18.8651 20.7389 18.9071 20.4981 18.9167 20.4111C19.046 19.2171 19.1913 18.0259 19.3526 16.8376C19.3722 16.6922 19.3922 16.5472 19.4127 16.4026C19.4889 15.8511 19.5862 15.25 19.6744 14.6869C19.6784 14.6593 19.6765 14.631 19.6688 14.6042C19.6611 14.5774 19.6478 14.5525 19.6299 14.5314C19.6119 14.5103 19.5897 14.4934 19.5648 14.4818C19.5398 14.4703 19.5127 14.4644 19.4853 14.4645L15.0345 14.3861L14.4984 14.5693Z" fill="white"/>
</g>
<defs>
<clipPath id="clip0_18_66">
<rect width="28" height="28" fill="white"/>
</clipPath>
</defs>
</svg>
