<svg width="28" height="28" viewBox="0 0 28 28" fill="none" xmlns="http://www.w3.org/2000/svg">
<g clip-path="url(#clip0_18_66)">
<path d="M28 14C28 6.26801 21.732 0 14 0C6.26801 0 0 6.26801 0 14C0 21.732 6.26801 28 14 28C21.732 28 28 21.732 28 14Z" fill="#006851"/>
<path d="M14.9628 14.506C14.7007 16.4183 14.684 18.3295 14.7135 20.2276C13.6665 18.5147 13.1313 16.6057 13.264 14.5866L12.9468 14.6008C12.9201 14.6035 12.8933 14.5962 12.872 14.5803C12.8507 14.5644 12.8363 14.5411 12.8319 14.5153L12.2187 14.5447C12.205 14.5463 12.1912 14.5447 12.1783 14.54C12.1655 14.5354 12.154 14.5278 12.1447 14.5178C12.1355 14.5079 12.1288 14.496 12.1253 14.483C12.1218 14.4701 12.1215 14.4565 12.1244 14.4434L12.634 12.9685C12.6408 12.9412 12.6571 12.917 12.6801 12.9002C12.703 12.8833 12.7313 12.8747 12.76 12.8759L13.0817 12.9091C13.094 12.882 13.1142 12.8591 13.1398 12.8432C13.1654 12.8273 13.1952 12.8192 13.2255 12.8198L13.5383 12.8339C14.0456 10.8149 15.183 8.9059 16.7719 7.19351C16.1436 9.09163 15.5565 11.0023 15.2148 12.9124L15.6608 13.0916L19.9247 12.8884C19.9552 12.8882 19.9848 12.8779 20.0087 12.8594C20.0327 12.8408 20.0496 12.815 20.0568 12.786C20.325 11.2768 20.665 9.59216 20.9934 8.096C21.0022 8.06085 21.0022 8.02417 20.9935 7.98901C20.9847 7.95386 20.9675 7.92126 20.9432 7.89393C20.54 7.41391 20.1406 6.92972 19.7451 6.44134C19.7196 6.41089 19.6874 6.38639 19.651 6.36962C19.6145 6.35285 19.5747 6.34423 19.5344 6.3444C17.0891 6.22857 14.6431 6.11383 12.1964 6.00017C12.1089 5.99747 12.0236 6.02636 11.9566 6.08133C11.3385 6.55118 10.7226 7.02757 10.109 7.5105C10.0381 7.56268 9.9888 7.6381 9.97018 7.72291C9.09706 11.8882 8.44021 16.0939 8.00215 20.324C7.99711 20.3627 8.00096 20.4021 8.0134 20.4392C8.02583 20.4763 8.04656 20.5103 8.07407 20.5386C8.5316 21.0179 8.9923 21.4923 9.45615 21.9618C9.50744 22.0135 9.66857 21.9977 9.66857 21.9977H16.7468C16.7468 21.9977 16.9235 21.9596 16.9843 21.9035C17.5368 21.3926 18.3904 20.5506 18.9484 20.0517C19.0176 19.9901 19.0566 19.7761 19.0655 19.6987C19.1856 18.6374 19.3205 17.5786 19.4703 16.5223C19.4885 16.3931 19.5071 16.2642 19.526 16.1356C19.5968 15.6454 19.6872 15.1111 19.7691 14.6106C19.7728 14.586 19.771 14.5609 19.7639 14.5371C19.7567 14.5132 19.7444 14.4912 19.7277 14.4724C19.7111 14.4536 19.6904 14.4386 19.6673 14.4283C19.6441 14.418 19.6189 14.4128 19.5935 14.4129L15.4606 14.3432L14.9628 14.506Z" fill="white"/>
</g>
<defs>
<clipPath id="clip0_18_66">
<rect width="28" height="28" fill="white"/>
</clipPath>
</defs>
</svg>
