<svg width="28" height="28" viewBox="0 0 28 28" fill="none" xmlns="http://www.w3.org/2000/svg">
<g clip-path="url(#clip0_18_45)">
<path d="M28 14C28 6.26801 21.732 0 14 0C6.26801 0 0 6.26801 0 14C0 21.732 6.26801 28 14 28C21.732 28 28 21.732 28 14Z" fill="#004E6E"/>
<path d="M11.6077 10.7804C11.5097 10.7608 11.4117 10.7019 11.3724 10.5843L9.90185 6.74115C9.84303 6.58429 9.92146 6.40782 10.0783 6.349C10.2352 6.29017 10.4117 6.36861 10.4705 6.52547L11.9411 10.349C11.9999 10.5059 11.9215 10.6823 11.7646 10.7412C11.7058 10.7804 11.6666 10.8 11.6077 10.7804Z" fill="#B9A779"/>
<path d="M11.3334 11.8392C11.2746 11.8392 11.2354 11.8195 11.1962 11.7607L9.74519 9.25092C9.70598 9.17249 9.72559 9.07445 9.80402 9.03523C9.88245 8.99602 9.98049 9.01562 10.0197 9.09406L11.4707 11.6039C11.5099 11.6823 11.4903 11.7803 11.4119 11.8195C11.3923 11.8392 11.3726 11.8392 11.3334 11.8392Z" fill="#B9A779"/>
<path d="M12.6275 11.8392C12.5687 11.8392 12.5295 11.8196 12.4706 11.8C12.3334 11.7216 12.2746 11.5255 12.353 11.3882L13.0393 10.1921C13.1177 10.0353 13.3138 9.99606 13.451 10.0745C13.6079 10.1529 13.6471 10.349 13.5687 10.5059L12.8824 11.7019C12.8432 11.7804 12.7255 11.8392 12.6275 11.8392Z" fill="#B9A779"/>
<path d="M15.3728 11.8392C15.2747 11.8392 15.1571 11.7804 15.0983 11.6824L10.9806 4.5647C10.9022 4.40784 10.9414 4.23137 11.0983 4.13333C11.2355 4.0549 11.4316 4.09412 11.5296 4.25098L15.6473 11.3686C15.7257 11.5059 15.6865 11.702 15.5296 11.7804C15.4708 11.8196 15.412 11.8392 15.3728 11.8392Z" fill="#B9A779"/>
<path d="M16.0588 10.643C16 10.643 15.9608 10.6234 15.902 10.6038C15.7451 10.5254 15.7059 10.3293 15.7843 10.1724L17.8432 6.62342C17.9216 6.46655 18.1177 6.42734 18.2745 6.50577C18.4314 6.5842 18.4706 6.78028 18.3922 6.93714L16.3334 10.4862C16.2549 10.6038 16.1569 10.643 16.0588 10.643Z" fill="#B9A779"/>
<path d="M15.3724 9.30969C15.3528 9.30969 15.3136 9.30969 15.294 9.29008C15.2156 9.25086 15.196 9.15282 15.2352 9.07439L16.6077 6.70184C16.6469 6.62341 16.745 6.60381 16.8234 6.64302C16.9019 6.68224 16.9215 6.78028 16.8822 6.85871L15.5097 9.23126C15.4705 9.29008 15.4117 9.30969 15.3724 9.30969Z" fill="#B9A779"/>
<path d="M14.6865 8.27059C14.6277 8.27059 14.5885 8.25098 14.5297 8.23137C14.3728 8.15294 14.3336 7.95686 14.412 7.81961L16.4708 4.25098C16.5493 4.09412 16.7454 4.0549 16.9022 4.13333C17.0591 4.21176 17.0983 4.40784 17.0199 4.5647L14.961 8.13333C14.8826 8.23137 14.7846 8.27059 14.6865 8.27059Z" fill="#B9A779"/>
<path d="M16.6471 11.8392C16.6275 11.8392 16.5883 11.8392 16.5687 11.8195C16.4902 11.7803 16.4706 11.6823 16.5098 11.6039L17.9608 9.09406C18 9.01562 18.0981 8.99602 18.1765 9.03523C18.2549 9.07445 18.2745 9.17249 18.2353 9.25092L16.7844 11.7607C16.7647 11.7999 16.7059 11.8392 16.6471 11.8392Z" fill="#B9A779"/>
<path d="M12.6276 9.30969C12.5687 9.30969 12.5295 9.29008 12.4903 9.23126L11.1178 6.85871C11.0785 6.78028 11.0981 6.68224 11.1766 6.64302C11.255 6.60381 11.353 6.62341 11.3923 6.70184L12.7648 9.07439C12.804 9.15282 12.7844 9.25086 12.706 9.29008C12.6864 9.30969 12.6472 9.30969 12.6276 9.30969Z" fill="#B9A779"/>
<path d="M18.6863 13.1921H9.31373C9.13726 13.1921 9 13.0549 9 12.8784C9 12.702 9.13726 12.5647 9.31373 12.5647H18.6863C18.8627 12.5647 19 12.702 19 12.8784C19 13.0549 18.8627 13.1921 18.6863 13.1921Z" fill="white"/>
<path d="M18.0589 13.9569H9.94129C9.86286 13.9569 9.78442 13.8785 9.78442 13.8001C9.78442 13.7216 9.86286 13.6432 9.94129 13.6432H18.0589C18.1374 13.6432 18.2158 13.702 18.2158 13.8001C18.2158 13.8981 18.1374 13.9569 18.0589 13.9569Z" fill="white"/>
<path d="M14 23.7999C13.8235 23.7999 13.6863 23.6627 13.6863 23.4862V14.7999C13.6863 14.6235 13.8235 14.4862 14 14.4862C14.1765 14.4862 14.3137 14.6235 14.3137 14.7999V23.4862C14.3137 23.6627 14.1765 23.7999 14 23.7999Z" fill="white"/>
<path d="M15.0394 14.5059C14.961 14.5059 14.8826 14.5843 14.8826 14.6627V22.2902C14.8826 22.3686 14.961 22.447 15.0394 22.447C15.1179 22.447 15.1963 22.3686 15.1963 22.2902V14.6627C15.1963 14.5843 15.1179 14.5059 15.0394 14.5059Z" fill="white"/>
<path d="M12.9608 14.5059C12.8824 14.5059 12.804 14.5843 12.804 14.6627V22.2902C12.804 22.3686 12.8824 22.447 12.9608 22.447C13.0392 22.447 13.1177 22.3686 13.1177 22.2902V14.6627C13.1177 14.5843 13.0392 14.5059 12.9608 14.5059Z" fill="white"/>
</g>
<defs>
<clipPath id="clip0_18_45">
<rect width="28" height="28" fill="white"/>
</clipPath>
</defs>
</svg>
